<svg width="123" height="74" viewBox="0 0 123 74" fill="none" xmlns="http://www.w3.org/2000/svg">
<path d="M52.2692 72.7552C43.1932 71.8835 30.0173 68.0457 21.6199 63.8277C13.0541 59.5251 0.949646 50.7691 0.949646 48.8753C0.949646 47.2899 2.39126 47.5204 6.72197 49.7983C19.25 56.3877 32.7605 60.7226 46.9185 62.6954C55.1878 63.8476 69.1515 63.8344 78.0587 62.6659C87.1898 61.4681 102.604 57.2982 107.718 54.6426C109.97 53.4732 112.141 54.9491 111.118 56.953C109.807 59.5177 98.3976 65.621 89.6745 68.4233C76.6047 72.6221 64.9444 73.9725 52.2692 72.7552ZM112.18 67.8075C111.621 67.4607 111.728 66.8631 112.774 64.4889C114.665 60.1938 116.294 53.1693 115.67 51.9979C114.836 50.4336 109.829 49.9994 103.02 50.9008C100.866 51.186 99.8733 51.1234 99.3918 50.672C98.3998 49.742 100.011 48.4668 104.343 46.7538C107.49 45.5093 108.641 45.3183 113.153 45.2921C116.949 45.2701 118.841 45.4819 120.197 46.0805C122.048 46.8981 122.05 46.9026 122.05 49.9393C122.05 57.4041 115.251 69.7134 112.18 67.8075ZM12.5654 37.5109C9.70978 36.4088 7.11139 33.7144 6.3903 31.1075C4.47837 24.1955 7.7729 18.2435 14.5269 16.4075C17.6679 15.5536 22.6407 15.5868 26.7762 16.4891L28.1355 16.7857L28.1337 13.8736C28.1292 6.80512 22.9661 4.58335 13.2978 7.48948C10.9664 8.19028 8.97341 8.54553 8.73222 8.30331C8.4968 8.06689 8.37324 6.80545 8.45765 5.50012L8.61112 3.12679L12.3183 1.62418C15.5447 0.316452 16.6665 0.116424 20.9683 0.0818472C25.436 0.0459383 26.1848 0.176992 28.7575 1.44512C34.3093 4.18177 35.5015 7.62226 35.5317 20.995C35.547 27.8124 35.6993 29.4236 36.527 31.5325C37.0644 32.9018 37.3932 34.3062 37.2576 34.6534C36.9422 35.4607 33.8049 37.5183 32.8894 37.5183C32.1202 37.5183 29.1241 34.3139 29.1241 33.4913C29.1241 33.2065 28.2287 33.7431 27.1344 34.6838C24.9143 36.5922 19.7082 38.5235 16.8801 38.4879C15.8663 38.4751 13.9247 38.0355 12.5654 37.5109ZM23.701 31.2499C26.5391 30.1095 27.8728 27.9975 27.8814 24.63C27.8881 22.0014 27.8351 21.8918 26.4055 21.5792C23.5975 20.9652 18.3996 21.1252 16.5979 21.8812C14.4659 22.7758 13.7206 24.0286 13.6791 26.7875C13.6018 31.9241 17.5965 33.7028 23.701 31.2499ZM96.5945 37.8006C91.3663 36.3164 89.9134 35.1759 89.9292 32.5681C89.9441 29.9652 90.4693 29.7908 94.6294 31.0047C100.814 32.8093 107.249 32.4039 109.06 30.0956C109.973 28.9316 109.834 25.883 108.828 24.9972C107.432 23.7678 105.213 22.7946 101.837 21.9303C95.373 20.2758 92.0933 17.5752 90.9271 12.947C89.7479 8.26702 91.9819 4.04476 97.0443 1.38585C99.2793 0.211949 100.085 0.0690746 104.256 0.106295C109.085 0.149371 112.463 0.997599 114.241 2.61287C115.22 3.5029 115.505 7.44367 114.63 7.98711C114.354 8.15803 112.853 7.8084 111.293 7.21017C106.156 5.23988 99.1197 5.93072 98.1373 8.50177C96.8548 11.858 98.6334 13.6679 105.424 15.917C108.377 16.8951 111.38 18.0032 112.097 18.3793C119.639 22.337 118.435 33.3704 110.06 37.0482C106.812 38.4746 100.259 38.8407 96.5945 37.8006ZM49.8007 37.0047C48.9302 36.4945 47.1673 31.2896 41.8206 13.4434C41.1662 11.2593 40.1511 7.88103 39.5648 5.93613C38.1239 1.15664 38.3567 0.703881 42.1605 0.887519C45.0782 1.02838 45.219 1.09697 46.026 2.77106C46.4866 3.72661 47.3282 6.40711 47.8962 8.72773C48.4642 11.0483 49.4515 14.9574 50.0903 17.4145C50.7291 19.8717 51.5381 23.1769 51.8882 24.7594C52.2382 26.342 52.6797 27.733 52.8692 27.8507C53.0588 27.9683 53.4891 26.6735 53.8255 24.9733C54.1619 23.2731 55.0682 19.3132 55.8394 16.1736C56.6106 13.0339 57.6315 8.6903 58.1081 6.52109C59.1793 1.64529 59.9471 0.785506 63.23 0.785506C66.4326 0.785506 67.3283 1.69794 68.1401 5.78739C68.4882 7.54109 69.2918 11.098 69.9257 13.6916C70.5597 16.2853 71.5783 20.5852 72.1892 23.2471C72.8 25.909 73.4809 28.0869 73.7021 28.0869C73.9234 28.0869 74.1041 27.696 74.1039 27.2182C74.1036 26.7405 74.7611 23.8924 75.565 20.8893C76.3689 17.8861 77.484 13.642 78.0428 11.4579C80.1441 3.24585 80.5526 2.0106 81.3666 1.40599C82.6527 0.450699 87.4078 0.59344 87.792 1.59886C87.9629 2.04621 87.5176 4.2241 86.8025 6.43865C86.0873 8.65319 84.1391 14.9326 82.4731 20.3929C78.6667 32.8686 77.5929 35.9296 76.7125 36.8138C75.8937 37.636 71.5416 37.7698 70.1388 37.0159C69.5958 36.724 69.0747 35.7359 68.8955 34.658C68.7258 33.6376 68.0659 30.9039 67.4289 28.5833C66.792 26.2627 66.0358 23.1354 65.7486 21.6339C64.8369 16.8685 62.7976 9.88157 62.7658 11.4143C62.7493 12.2094 62.0873 15.3367 61.2949 18.3638C60.5024 21.3909 59.2366 26.5481 58.4819 29.8243C57.5805 33.7373 56.7842 36.079 56.1608 36.6496C55.1103 37.6113 51.2075 37.8291 49.8007 37.0047Z" fill="black"/>
</svg>
