<svg width="30" height="25" viewBox="0 0 214 203" fill="none" xmlns="http://www.w3.org/2000/svg">
<g clip-path="url(#clip0_274_2)">
<path d="M200.388 97.4963L111.221 12.9129C110.107 11.8627 108.6 11.2732 107.03 11.2732C105.46 11.2732 103.953 11.8627 102.839 12.9129L13.6725 97.4963C12.6987 98.575 12.1898 99.9626 12.2476 101.382C12.3054 102.801 12.9256 104.147 13.9843 105.151C15.0429 106.156 16.4621 106.744 17.9582 106.799C19.4543 106.854 20.917 106.371 22.0542 105.447L107 24.8674L191.946 105.503C193.084 106.427 194.546 106.91 196.042 106.855C197.539 106.8 198.958 106.212 200.016 105.208C201.075 104.204 201.695 102.857 201.753 101.438C201.811 100.019 201.302 98.6314 200.328 97.5527L200.388 97.4963Z" fill="white" stroke-width="200"/>
<path d="M166.445 180.445H136.723V124.056H77.2781V180.445H47.5559V101.5L35.667 112.778V180.445C35.667 183.436 36.9196 186.304 39.1492 188.419C41.3788 190.534 44.4028 191.722 47.5559 191.722H89.167V135.333H124.834V191.722H166.445C169.598 191.722 172.622 190.534 174.851 188.419C177.081 186.304 178.334 183.436 178.334 180.445V111.425L166.445 100.147V180.445Z" fill="white"  stroke-width="200"/>
</g>
<defs>
<clipPath id="clip0_274_2">
<rect width="300" height="300" fill="white"/>
</clipPath>
</defs>
</svg>

