<svg width="153" height="96" viewBox="0 0 153 96" fill="none" xmlns="http://www.w3.org/2000/svg">
<path d="M63.2631 95.8936C61.2738 95.6504 59.2199 94.5984 57.7077 93.0481C56.1137 91.414 55.3292 89.8749 54.9654 87.6682C54.1327 82.618 57.0778 77.7221 61.839 76.2415C63.6707 75.6719 66.6073 75.6742 68.401 76.2471C70.3727 76.8764 73.0864 78.7962 73.0749 79.5536C73.0695 79.9055 70.666 82.654 70.3636 82.654C70.2722 82.654 69.9009 82.3509 69.5385 81.9805C67.9198 80.3261 65.1368 79.7742 63.0057 80.6851C61.7066 81.2403 61.0849 81.7979 60.3191 83.0948C59.8051 83.9653 59.7346 84.3176 59.7432 85.9737C59.7517 87.6147 59.8304 87.9928 60.3469 88.8734C61.6241 91.0508 63.5983 91.9161 66.2641 91.4668C67.7219 91.2212 68.0032 91.0785 69.4802 89.8357L70.2445 89.1926L71.6839 90.6307C73.3442 92.2897 73.3437 92.2969 71.4321 93.8231C69.2175 95.5912 66.4749 96.2861 63.2631 95.8936ZM96.1336 95.8536C93.9411 95.6615 92.3831 94.8837 90.5116 93.0469C86.3172 88.9302 86.3496 82.553 90.5854 78.5208C91.1266 78.0056 91.6376 77.584 91.7209 77.584C91.8043 77.584 92.1252 77.3854 92.4341 77.1427C93.3594 76.4155 95.6055 75.8441 97.7249 75.7967C98.791 75.7729 99.8122 75.8104 99.9942 75.8802C100.176 75.9499 100.83 76.1661 101.448 76.3606C102.539 76.7044 103.757 77.4649 105.241 78.7299C105.64 79.0695 105.896 79.3474 105.81 79.3474C105.723 79.3474 105.858 79.5705 106.108 79.8433C107.606 81.4741 108.37 84.7131 107.928 87.552C107.575 89.8227 106.731 91.4311 105.018 93.0962C102.6 95.4474 100.156 96.206 96.1336 95.8536ZM99.6037 91.548C100.122 91.3482 100.877 90.8771 101.281 90.501C102.211 89.6375 103.166 88.0383 103.005 87.6174C102.937 87.4409 102.99 87.2296 103.122 87.1479C103.282 87.0493 103.316 86.4492 103.224 85.3646C103.058 83.4005 102.433 82.196 100.947 80.9799C99.9895 80.1957 99.8423 80.1483 98.1746 80.0879C96.0231 80.0099 95.1611 80.3261 93.9327 81.6442C89.7853 86.0939 94.1191 93.6625 99.6037 91.548ZM4.13116 95.6032C4.07296 95.4517 4.05126 91.0626 4.08293 85.8497L4.1405 76.3717H6.45687H8.77325V80.0636C8.77325 82.0942 8.78617 83.7556 8.80197 83.7556C8.81776 83.7557 10.2572 82.1935 12.0008 80.2842C13.7443 78.3748 15.3198 76.6918 15.5018 76.5441C15.9735 76.1613 21.0181 76.1549 21.0138 76.5369C21.0121 76.6885 20.6104 77.256 20.1212 77.798C19.6319 78.3401 18.556 79.5304 17.7303 80.443C16.9046 81.3557 15.6762 82.7374 15.0006 83.5134L13.7721 84.9243L14.8551 86.4891C15.4507 87.3496 16.7274 89.1448 17.6921 90.4784C18.6569 91.8119 19.8563 93.4714 20.3575 94.1662C20.8586 94.861 21.2062 95.5305 21.1298 95.654C21.0485 95.7854 19.9404 95.8786 18.46 95.8786C16.2498 95.8786 15.9115 95.8298 15.7899 95.4929C15.7133 95.2807 15.5119 94.9583 15.3423 94.7765C15.1728 94.5947 14.6677 93.9436 14.22 93.3296C11.5835 89.7142 10.5676 88.3844 10.4425 88.3844C10.365 88.3844 9.98255 88.7992 9.59258 89.3061C8.89781 90.2093 8.88349 90.2747 8.88054 92.5573C8.87602 96.0735 9.02013 95.8786 6.42422 95.8786C4.87791 95.8786 4.20595 95.798 4.13116 95.6032ZM22.9893 93.1786C22.9782 90.8763 22.9855 76.9112 22.9981 76.4269C23.0005 76.3359 26.1791 76.2615 30.0618 76.2615H37.1212V78.241V80.2205L32.323 80.2799L27.5248 80.3393L27.4608 82.1578L27.3967 83.9762H31.7074H36.0182V85.96V87.9438H31.7074H27.3967L27.4608 89.7622L27.5248 91.5806L32.4885 91.6908L37.4521 91.8011L37.5185 93.3394C37.555 94.1854 37.5283 95.1029 37.4592 95.3782L37.3334 95.8788H30.1679H23.0024L22.9893 93.1786ZM44.9792 95.5375C44.904 95.3416 44.8425 93.5651 44.8425 91.5896V87.9978L41.6442 82.4052C39.8852 79.3293 38.4457 76.6886 38.4454 76.5371C38.445 76.3335 39.0645 76.2623 40.8164 76.2643L43.1879 76.2666L43.6843 77.0323C43.9573 77.4534 44.1806 77.8509 44.1806 77.9156C44.1806 77.9804 44.4131 78.4033 44.6971 78.8555C45.2722 79.7709 46.2921 81.5589 46.7706 82.4903C46.9425 82.825 47.169 83.0458 47.2739 82.981C47.4469 82.8742 48.2365 81.5427 49.9981 78.3872C51.2957 76.0628 50.9529 76.2612 53.6718 76.2612C55.1907 76.2612 56.0934 76.3461 56.0934 76.4889C56.0934 76.6141 55.3372 78.0275 54.4128 79.6298C53.4885 81.2321 52.3822 83.1878 51.9544 83.9758C51.5266 84.7638 51.042 85.5651 50.8774 85.7565C50.7129 85.9479 50.5782 86.2073 50.5782 86.3329C50.5782 86.4586 50.382 86.8107 50.1421 87.1153C49.7494 87.6142 49.7 88.0722 49.6457 91.7187L49.5855 95.7681L47.3507 95.8307C45.4593 95.8836 45.095 95.8389 44.9792 95.5375ZM74.9954 95.7351C74.9127 95.6524 74.845 91.2371 74.845 85.9232V76.2615H77.1614C78.8643 76.2615 79.4793 76.3345 79.4836 76.5371C79.4867 76.6886 79.5116 80.1354 79.5387 84.1966L79.5881 91.5806L83.6693 91.6908L87.7505 91.801V93.7848V95.7685L81.4482 95.8269C77.9819 95.859 75.0781 95.8177 74.9954 95.7351ZM106.833 95.5171C106.833 95.3182 107.021 94.7479 107.251 94.2497C108.096 92.4174 109.47 89.1464 109.529 88.8253C109.563 88.6435 109.641 88.4451 109.703 88.3845C109.881 88.2096 110.443 86.9779 112.016 83.3149C113.905 78.9149 113.766 79.2372 114.459 77.6392L115.056 76.2615H117.298H119.54L120.066 77.3085C120.355 77.8844 120.571 78.436 120.546 78.5343C120.522 78.6326 120.647 78.9798 120.824 79.3058C121.002 79.6317 121.414 80.5432 121.74 81.3311C122.066 82.1191 122.568 83.2697 122.855 83.8879C123.143 84.5062 123.379 85.08 123.379 85.1631C123.379 85.2462 123.548 85.5732 123.756 85.8897C123.964 86.2062 124.164 86.6631 124.201 86.9049C124.237 87.1467 124.454 87.7025 124.681 88.1401C124.909 88.5776 125.342 89.5307 125.643 90.2581C126.71 92.8325 126.797 93.0133 126.975 93.0133C127.074 93.0133 127.096 93.1091 127.023 93.2261C126.951 93.3432 127.094 93.8352 127.341 94.3195C128.125 95.8542 128.094 95.8787 125.404 95.8787H123.017L122.332 94.2807C121.955 93.4018 121.583 92.4595 121.505 92.1867C121.365 91.6955 121.325 91.6908 117.297 91.6908C113.547 91.6908 113.231 91.7213 113.231 92.0826C113.231 92.2981 113.099 92.67 112.938 92.9091C112.777 93.1483 112.418 93.9142 112.14 94.6113L111.635 95.8787H109.234C107.155 95.8787 106.833 95.8301 106.833 95.5171ZM119.102 86.9596C118.906 86.6607 118.746 86.2674 118.746 86.0854C118.746 85.6182 118.041 84.1966 117.809 84.1966C117.703 84.1966 117.673 84.1048 117.743 83.9927C117.812 83.8805 117.75 83.5271 117.604 83.2074L117.339 82.626L117.04 83.1961C116.875 83.5096 116.801 83.863 116.874 83.9814C116.947 84.0997 116.917 84.1966 116.807 84.1966C116.697 84.1966 116.431 84.6181 116.216 85.1334C115.802 86.126 115.399 87.0635 115.269 87.3375C115.225 87.4285 116.15 87.5028 117.324 87.5028H119.458L119.102 86.9596ZM129.041 95.7318C128.96 95.6509 128.894 91.2371 128.894 85.9232V76.2615H131.21H133.526L133.531 80.0637L133.536 83.8659L134.542 82.7639C136.386 80.7429 138.922 78.0032 139.758 77.1274L140.585 76.2615H143.196C144.632 76.2615 145.874 76.3286 145.956 76.4105C146.038 76.4924 145.888 76.79 145.623 77.0717C145.358 77.3535 145.209 77.584 145.291 77.584C145.373 77.584 145.044 77.942 144.559 78.3795C144.072 78.8192 143.742 79.2875 143.822 79.4265C143.901 79.5648 143.892 79.6125 143.803 79.5325C143.628 79.3764 143.155 79.8357 141.247 82.0127C140.58 82.7743 139.798 83.6248 139.51 83.9029C139.222 84.1809 138.986 84.6378 138.986 84.9182C138.986 85.4344 140.3 87.5028 140.628 87.5028C140.726 87.5028 140.806 87.6445 140.806 87.8177C140.806 87.9909 140.979 88.3055 141.191 88.5169C141.402 88.7283 141.675 89.0639 141.798 89.2626C142.689 90.7138 143.082 91.2499 143.255 91.2499C143.364 91.2499 143.453 91.3766 143.453 91.5314C143.453 91.6863 143.74 92.1269 144.091 92.5106C144.442 92.8943 144.69 93.2477 144.641 93.2958C144.593 93.3439 144.753 93.5634 144.996 93.7835C145.24 94.0036 145.439 94.3122 145.439 94.4692C145.439 94.6262 145.603 94.8466 145.804 94.9588C146.024 95.0816 146.114 95.3054 146.031 95.5208C145.916 95.8223 145.502 95.8778 143.405 95.8726L140.917 95.8663L140.365 95.0998C140.062 94.6782 139.665 94.1193 139.483 93.8579C139.301 93.5965 138.891 93.1055 138.572 92.7669C138.253 92.4282 138.03 92.113 138.077 92.0664C138.124 92.0198 137.962 91.8016 137.719 91.5815C137.476 91.3614 137.276 91.0867 137.276 90.9711C137.276 90.8554 137.084 90.5484 136.848 90.2889C136.613 90.0293 136.175 89.5194 135.874 89.1557L135.328 88.4945L134.427 89.4405L133.526 90.3866V93.1325V95.8785H131.357C130.164 95.8785 129.122 95.8125 129.041 95.7318Z" fill="#AFAEAE"/>
<path d="M19.8621 0L0 33.9863L19.6414 68.1933H59.3657L69.1864 51.2001H143.007L152.938 34.0966L143.007 16.9931H68.9657L59.145 0H19.8621Z" fill="#686868"/>
<path d="M143.007 16.9932H9.93106L0 34.0967L9.93106 51.2002H69.076L75.4761 39.9449H82.0968L85.4071 45.1312L88.8278 39.9449H95.1175L98.5382 45.1312L101.959 39.9449H104.166L107.586 45.1312L111.007 39.9449H120.828L124.249 45.1312L127.449 39.9449H129.876L133.187 45.0208L136.607 39.9449H143.007L146.207 45.1312L152.938 34.0967L143.007 16.9932Z" fill="#AFAEAE"/>
<path d="M42.9243 17.3241L52.745 34.3173H59.3657L46.1243 11.4758L42.9243 17.3241Z" fill="#08B7E1"/>
<path d="M52.745 11.4758H46.1243L59.3657 34.3173L62.6601 28.5793L52.745 11.4758Z" fill="#3CC1E6"/>
<path d="M52.745 57.0484L65.9864 34.3173L62.6601 28.5793L59.3657 34.3173L46.2347 57.0484H52.745Z" fill="#08B7E1"/>
<path d="M42.814 51.4208L46.2347 57.0484L59.3657 34.3173H52.745L42.814 51.4208Z" fill="#0089AA"/>
<path d="M33.3245 11.4758H26.5935L13.4624 34.2069L16.6624 39.7934L19.9495 34.2069L33.3245 11.4758Z" fill="#0089AA"/>
<path d="M26.7038 34.2069L36.5245 17.1034L33.3245 11.4758L19.9495 34.2069H26.7038Z" fill="#08B7E1"/>
<path d="M26.4831 56.938H33.2142L19.9495 34.2069L16.6624 39.7934L26.4831 56.938Z" fill="#08B7E1"/>
<path d="M33.2142 56.938L36.5245 51.0897L26.7038 34.2069H19.9495L33.2142 56.938Z" fill="#3CC1E6"/>
</svg>
