<svg width="580" height="736" viewBox="0 0 580 736" fill="none" xmlns="http://www.w3.org/2000/svg">
<rect x="3" y="250" width="575" height="236" rx="7" stroke="#B8ACD1" stroke-opacity="0.88" stroke-width="2"/>
<rect x="1.5" y="1.5" width="200" height="46" rx="14.5" stroke="#B8ACD1" stroke-opacity="0.88" stroke-width="3"/>
<rect x="1.5" y="89.5" width="113" height="46" rx="14.5" stroke="#B8ACD1" stroke-opacity="0.88" stroke-width="3"/>
<rect x="471.5" y="89.5" width="106" height="46" rx="14.5" stroke="#B8ACD1" stroke-opacity="0.88" stroke-width="3"/>
<rect x="289.5" y="89.5" width="173" height="46" rx="14.5" stroke="#B8ACD1" stroke-opacity="0.88" stroke-width="3"/>
<rect x="123.5" y="89.5" width="157" height="46" rx="14.5" stroke="#B8ACD1" stroke-opacity="0.88" stroke-width="3"/>
<rect x="289.5" y="166.5" width="288" height="46" rx="14.5" stroke="#B8ACD1" stroke-opacity="0.88" stroke-width="3"/>
<rect x="1.5" y="166.5" width="279" height="46" rx="14.5" stroke="#B8ACD1" stroke-opacity="0.88" stroke-width="3"/>
<rect x="407.5" y="2.5" width="170" height="46" rx="14.5" stroke="#B8ACD1" stroke-opacity="0.88" stroke-width="3"/>
<rect x="2.5" y="523.5" width="113" height="46" rx="14.5" stroke="#B8ACD1" stroke-opacity="0.88" stroke-width="3"/>
<rect x="388.5" y="523.5" width="190" height="46" rx="14.5" stroke="#B8ACD1" stroke-opacity="0.88" stroke-width="3"/>
<rect x="124.5" y="523.5" width="255" height="46" rx="14.5" stroke="#B8ACD1" stroke-opacity="0.88" stroke-width="3"/>
<rect x="421.5" y="606.5" width="157" height="46" rx="14.5" stroke="#B8ACD1" stroke-opacity="0.88" stroke-width="3"/>
<rect x="256.5" y="605.5" width="157" height="46" rx="14.5" stroke="#B8ACD1" stroke-opacity="0.88" stroke-width="3"/>
<rect x="254.5" y="688.5" width="324" height="46" rx="14.5" stroke="#B8ACD1" stroke-opacity="0.88" stroke-width="3"/>
<rect x="2.5" y="705.5" width="224" height="29" rx="7.5" stroke="#B8ACD1" stroke-opacity="0.88" stroke-width="3"/>
<rect x="2.5" y="622.5" width="224" height="29" rx="7.5" stroke="#B8ACD1" stroke-opacity="0.88" stroke-width="3"/>
</svg>
