<svg width="761" height="108" viewBox="0 0 761 108" fill="none" xmlns="http://www.w3.org/2000/svg">
<path d="M24.5429 107.748C17.8081 106.967 14.3555 105.685 11.097 102.755C8.58947 100.501 6.98816 97.4767 6.22889 93.5615C5.77954 91.2444 5.87834 84.6175 6.41634 80.9885C6.87842 77.8716 7.73234 73.7705 11.5899 56.1418C12.5811 51.6122 13.392 47.7651 13.392 47.5929C13.392 47.3828 11.1891 47.2796 6.70153 47.2796C1.5532 47.2796 0.00848097 47.194 4.27953e-05 46.908C-0.00600445 46.7035 0.629611 43.4923 1.41249 39.7719L2.83589 33.0075L9.74943 33.0069C13.5519 33.0068 16.663 32.9372 16.663 32.8524C16.663 32.0052 19.7841 18.499 20.0396 18.2405C20.4636 17.8115 40.0828 11.4264 40.3023 11.646C40.3902 11.7339 39.4562 16.4643 38.2266 22.1579C36.9971 27.8516 35.9911 32.6217 35.9911 32.7583C35.9911 32.8948 39.7378 33.0066 44.3171 33.0066C50.7738 33.0066 52.6455 33.09 52.654 33.3782C52.6601 33.5827 52.0245 36.7939 51.2416 40.5143L49.8182 47.2787L41.2692 47.2793C36.5673 47.2795 32.7202 47.3886 32.7202 47.5217C32.7202 47.6548 31.1138 55.1147 29.1503 64.0993C25.1415 82.4435 24.7327 84.9174 25.2778 87.5353C25.7231 89.6744 27.337 91.5952 29.3281 92.3555C31.1209 93.0402 36.1891 92.7976 39.0678 91.8892C40.1875 91.5359 41.1784 91.3215 41.2697 91.4128C41.361 91.5042 40.7126 94.8554 39.829 98.86L38.2223 106.141L35.5456 106.742C30.7902 107.811 27.599 108.102 24.5429 107.748ZM105.842 107.622C93.1658 106.276 83.4697 98.0342 80.4199 86.0115C78.4386 78.2009 78.999 68.3258 81.9187 59.6003C86.1008 47.1024 95.2751 37.8219 107.488 33.7352C115.925 30.912 127.44 30.7433 137.88 33.2901C139.749 33.7459 141.33 34.1715 141.394 34.236C141.529 34.3707 137.005 49.5479 136.756 49.797C136.665 49.8873 135.466 49.4389 134.091 48.8005C126.377 45.2188 117.135 45.7264 110.721 50.0842C106.536 52.9274 102.837 58.1533 101.024 63.7829C99.7123 67.8567 99.4839 69.4674 99.5068 74.4878C99.5241 78.3497 99.6458 79.674 100.152 81.5215C101.786 87.4845 105.149 90.9462 110.689 92.3696C112.158 92.7471 113.423 92.8146 116.575 92.6837C120.973 92.501 124.484 91.7454 128.453 90.1271C129.671 89.6306 130.716 89.2734 130.776 89.3332C130.873 89.4303 128.789 104.472 128.667 104.554C128.64 104.573 127.705 104.949 126.59 105.39C121.417 107.436 112.811 108.361 105.842 107.622ZM235.607 107.623C220.217 106.134 210.293 98.6976 207.021 86.2023C205.559 80.6227 205.422 72.9262 206.678 66.9235C210.477 48.7657 224.107 34.8586 240.978 31.9283C244.737 31.2753 253.31 31.5114 256.982 32.369C262.002 33.5416 266.233 35.6821 269.584 38.7446C276.751 45.294 278.937 56.2349 276.206 71.8859L275.571 75.5286H253.022H230.474L230.607 74.2648C230.68 73.5697 230.812 72.0644 230.901 70.9195C231.059 68.8874 231.547 66.2329 232.228 63.7021L232.567 62.4448H245.612H258.658L258.875 59.843C259.603 51.103 255.748 46.0499 248.006 45.5973C243.224 45.3177 238.528 46.6942 235.013 49.4062C231.02 52.487 226.852 60.3444 225.032 68.2222C224.185 71.8901 224.126 79.2061 224.921 82.0703C226.521 87.8358 230.326 91.401 236.566 92.9805C239.49 93.7206 248.816 93.7181 252.615 92.9764C255.917 92.3317 260.396 90.9835 263.855 89.5934C265.294 89.0151 266.533 88.6043 266.61 88.6805C266.88 88.9508 264.372 103.587 264.017 103.806C263.408 104.183 256.72 105.875 252.944 106.609C246.648 107.831 241.104 108.155 235.607 107.623ZM303.629 107.628C294.641 106.503 289.111 102.229 287.07 94.8331C286.341 92.1887 286.34 84.9049 287.069 80.435C287.479 77.9183 293.128 51.4203 293.994 47.9489L294.161 47.2798H287.257H280.354L280.521 46.6107C280.759 45.6568 283.392 33.3174 283.392 33.1537C283.392 33.0789 286.502 32.9817 290.303 32.9378L297.214 32.858L298.738 25.8401C299.576 21.9802 300.317 18.6573 300.384 18.4559C300.511 18.0743 320.156 11.5186 320.738 11.6632C320.957 11.7174 320.291 15.3599 318.793 22.3018L316.516 32.858L324.932 32.9369C329.661 32.9812 333.347 33.133 333.347 33.2833C333.347 33.5819 330.722 45.9408 330.485 46.7594C330.346 47.2392 329.676 47.2798 321.899 47.2798C314.122 47.2798 313.453 47.3204 313.313 47.8001C313.23 48.0863 311.533 55.813 309.544 64.9705C305.436 83.8805 305.127 86.1445 306.288 88.8445C307.065 90.6504 308.085 91.6118 309.999 92.3426C311.754 93.013 316.475 92.7917 319.633 91.891C320.839 91.5469 321.881 91.3198 321.947 91.3863C322.109 91.548 318.925 105.81 318.67 106.065C318.56 106.175 317.034 106.573 315.279 106.951C311.581 107.746 306.797 108.024 303.629 107.628ZM466.117 107.631C457.112 106.228 450.797 100.857 448.823 92.9238C448.457 91.4556 448.306 89.6595 448.308 86.828C448.312 82.1081 448.781 79.8912 450.566 76.1499C451.534 74.1187 452.241 73.1662 454.329 71.0778C457.177 68.2289 459.599 66.6714 463.754 65.019C470.65 62.2765 480.442 60.9616 493.989 60.9591L499.558 60.9579L499.782 60.1401C499.905 59.6904 500.008 57.8505 500.011 56.0515C500.014 52.9395 499.971 52.7011 499.094 51.1451C495.229 44.2864 480.348 43.7212 465.134 49.8553C463.285 50.6008 461.736 51.1626 461.691 51.1036C461.647 51.0447 462.215 47.5804 462.954 43.4053L464.297 35.8141L467.437 34.8536C475.648 32.3422 482.662 31.3689 490.797 31.6121C494.63 31.7266 496.988 31.9521 499.103 32.4064C510.554 34.8657 516.795 41.4872 517.59 52.0193C517.931 56.5422 517.065 62.3096 512.807 83.8543C511.272 91.6227 509.718 99.8186 509.356 102.067L508.696 106.156H500.564C496.092 106.156 492.435 106.122 492.437 106.082C492.44 106.041 492.884 103.56 493.426 100.568C493.98 97.5146 494.263 95.2974 494.073 95.5131C493.887 95.7244 492.888 96.8729 491.853 98.0653C487.988 102.519 482.939 105.802 478.011 107.068C475.264 107.773 468.946 108.072 466.117 107.631ZM481.801 93.092C488.852 91.2887 492.961 86.6117 496.117 76.7977C496.707 74.9609 497.191 73.2362 497.191 72.9652C497.191 72.5164 496.612 72.487 490.723 72.6358C483.987 72.806 480.451 73.2566 476.971 74.3884C472.204 75.9386 469.299 78.1398 467.679 81.4303C466.841 83.1342 466.719 83.682 466.716 85.7731C466.712 87.7821 466.831 88.3766 467.455 89.4776C468.402 91.1475 469.864 92.3201 471.925 93.0609C474.159 93.8644 478.725 93.8788 481.801 93.092ZM535.996 107.766C531.358 107.305 528.757 106.91 526.068 106.259C522.446 105.382 518.318 103.865 518.116 103.337C518.011 103.064 521.73 88.513 522.01 88.0988C522.036 88.0617 523.615 88.8128 525.521 89.7679C531.083 92.5544 535.232 93.6569 540.159 93.6569C550.093 93.6569 555.266 88.8896 552.249 82.5163C551.089 80.0677 548.828 78.0606 542.611 73.9598C539.79 72.0993 536.593 69.8212 535.506 68.8974C529.408 63.7143 527.318 57.1911 529.171 49.1229C531.078 40.8183 538.571 34.7634 549.888 32.3827C554.146 31.487 563.02 31.268 568.412 31.9257C572.224 32.3907 577.662 33.3893 577.95 33.6774C578.128 33.8553 574.238 47.6202 573.91 47.9739C573.783 48.1105 573.284 48.0174 572.799 47.767C571.318 47.001 567.384 46.0844 564.054 45.7292C558.812 45.1703 553.505 46.1418 551.022 48.1147C549.728 49.1432 548.631 51.2172 548.64 52.6207C548.659 55.4874 550.69 57.6832 557.741 62.4527C565.902 67.9737 568.363 70.1912 570.786 74.2075C572.507 77.0595 573.154 79.5879 573.141 83.4084C573.122 88.8909 571.838 93.1281 568.983 97.1296C565.38 102.179 558.247 105.855 549.473 107.184C546.44 107.644 538.302 107.995 535.996 107.766ZM606.04 107.627C597.083 106.506 591.465 102.208 589.541 95.0053C588.437 90.8697 588.653 84.239 590.137 76.7854C590.732 73.7911 595.691 50.8234 596.363 47.9486L596.519 47.2796H589.674C585.909 47.2796 582.829 47.2245 582.829 47.1571C582.829 47.0898 583.498 43.9334 584.316 40.143C585.134 36.3526 585.803 33.1987 585.803 33.1344C585.803 33.0701 588.911 32.9815 592.709 32.9376L599.616 32.8578L601.133 25.8699C601.967 22.0266 602.711 18.7005 602.786 18.4786C602.924 18.0695 622.52 11.5055 623.135 11.6622C623.347 11.7162 622.661 15.459 621.184 22.3016L618.905 32.8578L627.332 32.9367C631.967 32.9801 635.759 33.1152 635.759 33.2368C635.759 33.4261 633.378 44.6793 632.929 46.6105L632.774 47.2796H624.325C616.537 47.2796 615.864 47.3203 615.718 47.8C615.631 48.0862 613.941 55.7468 611.962 64.8236C608.138 82.3594 607.66 85.515 608.416 88.2158C608.947 90.1126 610.767 91.9326 612.663 92.4635C614.548 92.9913 619.161 92.7088 622.044 91.8889C623.251 91.5459 624.287 91.3143 624.347 91.3743C624.485 91.5121 621.297 105.849 621.08 106.066C620.992 106.154 619.475 106.544 617.709 106.933C614.022 107.744 609.246 108.029 606.04 107.627ZM659.845 107.651C645.817 106.27 636.45 100.115 632.227 89.504C629.776 83.347 629.266 74.6267 630.888 66.6076C632.506 58.6049 636.866 50.2785 642.622 44.1966C648.746 37.7257 656.654 33.3785 664.911 31.9447C667.108 31.5633 668.899 31.49 673.077 31.6104C678.977 31.7805 681.365 32.1879 685.47 33.7251C689.248 35.14 691.193 36.4038 694.2 39.3994C696.378 41.568 697.157 42.5998 698.309 44.8381C699.091 46.3575 700.081 48.8999 700.509 50.4879C701.233 53.173 701.288 53.823 701.297 59.7684C701.304 65.9755 701.012 69.1382 699.975 73.9736L699.641 75.5283H677.216H654.79L654.797 73.8185C654.805 71.5841 655.23 68.6025 656.025 65.1952L656.667 62.4446H669.684H682.7L682.909 60.7739C683.239 58.1287 682.897 53.8778 682.207 52.095C680.44 47.5183 675.888 45.1717 669.618 45.6043C660.961 46.2014 655.584 50.8264 651.422 61.2552C646.237 74.2475 647.686 85.943 655.067 90.6798C661.426 94.7603 674.466 94.6626 685.865 90.4491C687.173 89.9654 688.744 89.3302 689.355 89.0376C689.967 88.7449 690.556 88.5951 690.666 88.7047C690.954 88.9931 688.677 103.268 688.28 103.662C687.941 103.999 684.038 105.098 679.472 106.143C673.359 107.541 665.138 108.172 659.845 107.651ZM45.0791 104.298C47.3223 93.6619 60.1319 33.9208 60.2536 33.5269C60.4024 33.0456 61.1261 33.0066 69.9098 33.0066C78.61 33.0066 79.4052 33.0485 79.4052 33.5069C79.4052 33.9765 64.3984 104.513 64.0596 105.636C63.9142 106.117 63.187 106.156 54.2948 106.156H44.6871L45.0791 104.298ZM134.894 105.636C134.963 105.35 139.967 81.7656 146.014 53.2268C152.06 24.688 157.079 1.03703 157.166 0.669052L157.324 0H167.002C176.081 0 176.671 0.0321259 176.525 0.520373C176.181 1.66919 164.151 58.9745 164.235 59.0593C164.285 59.1094 170.208 53.268 177.396 46.0785L190.465 33.0066H202.906C210.398 33.0066 215.307 33.1159 215.247 33.2815C215.193 33.4328 207.722 40.6046 198.645 49.2189C189.568 57.8332 181.771 65.2412 181.319 65.6811L180.496 66.4809L191.355 86.0896C197.327 96.8743 202.213 105.801 202.213 105.927C202.213 106.053 197.363 106.154 191.434 106.152L180.655 106.147L171.315 86.9704C166.178 76.4232 161.929 67.8391 161.874 67.8945C161.766 68.0026 153.744 105.522 153.744 105.919C153.744 106.05 149.475 106.156 144.257 106.156C135.371 106.156 134.777 106.123 134.894 105.636ZM327.995 106.03C327.995 105.96 330.479 93.8169 333.516 79.0447C338.401 55.2793 342.863 33.344 342.863 33.0939C342.863 33.0459 346.877 33.0065 351.784 33.0065C360.179 33.0065 360.704 33.0383 360.704 33.5423C360.704 33.8369 360.372 35.9359 359.967 38.2068C359.561 40.4776 359.26 42.3642 359.298 42.3992C359.336 42.4343 360.102 41.5818 361.002 40.505C364.068 36.8338 369.092 33.6876 374.002 32.3624C377.171 31.5072 383.496 31.289 386.529 31.9301C390.637 32.7985 394.954 35.305 397.243 38.1505C398.493 39.7052 399.849 42.5004 400.114 44.0709L400.316 45.2598L401.219 43.6679C402.474 41.4557 406.797 37.2506 409.322 35.7844C414.1 33.0102 418.387 31.8183 424.339 31.6092C429.506 31.4276 431.558 31.8128 435.341 33.675C438.953 35.453 442.499 38.9878 444.217 42.5219C445.904 45.9948 446.343 47.9474 446.343 51.9873C446.343 55.7778 445.79 60.0836 444.674 64.9724C443.269 71.1325 439.875 86.3807 437.708 96.2691L435.542 106.156H425.926C420.637 106.156 416.31 106.083 416.31 105.993C416.31 105.903 418.247 96.8376 420.615 85.8471C425.667 62.401 426.168 59.7044 426.209 55.7543C426.247 52.1426 425.661 50.665 423.378 48.6129C421.459 46.8873 419.396 46.2474 416.474 46.4716C411.025 46.8897 406.912 50.0519 403.822 56.2003C401.279 61.2574 400.2 65.3124 395.078 89.0582L391.422 106.008L381.75 106.086L372.078 106.164L372.805 102.815C380.951 65.2578 382.114 59.3355 382.114 55.3974C382.114 51.5559 380.573 48.9187 377.423 47.3721C375.924 46.6358 375.402 46.5389 373.045 46.5585C365.024 46.6253 359.847 52.6214 356.119 66.1618C355.253 69.3068 347.325 105.158 347.324 105.933C347.324 106.056 342.975 106.156 337.659 106.156C332.344 106.156 327.995 106.099 327.995 106.03ZM701.475 105.811C701.475 105.617 704.356 91.5091 707.877 74.4609C713.25 48.446 716.044 34.3436 716.045 33.2296C716.045 33.1069 720.193 33.0065 725.263 33.0065C730.333 33.0065 734.481 33.1069 734.48 33.2296C734.48 33.4605 732.518 44.1812 732.236 45.4955C732.142 45.933 732.524 45.5046 733.164 44.4548C736.894 38.3328 743.024 33.5594 749.188 31.9752C751.845 31.2926 760.074 31.441 760.818 32.1848C760.947 32.3135 757.146 50.5758 756.948 50.7794C756.905 50.8235 756.014 50.6684 754.968 50.4347C751.951 49.7609 749.35 49.6 747.112 49.9488C739.822 51.0844 734.861 55.0704 730.954 62.9301C728.716 67.4324 728.43 68.592 722.351 97.8302L720.651 106.008L711.063 106.086C703.811 106.145 701.475 106.078 701.475 105.811ZM63.3479 19.6914C63.3479 19.5062 66.4652 5.06944 67.0702 2.45319L67.2249 1.78414H76.9151C84.5398 1.78414 86.577 1.86336 86.4726 2.15585C86.3996 2.36029 85.4881 6.4415 84.447 11.2252L82.5541 19.9229H72.951C67.6693 19.9229 63.3479 19.8187 63.3479 19.6914Z" fill="white"/>
</svg>
