<svg width="455" height="57" viewBox="0 0 455 57" fill="none" xmlns="http://www.w3.org/2000/svg">
<path d="M5.35499 54.855C3.08547 51.3874 3.09311 45.9418 5.38174 35.7991C6.54149 30.6593 7.49037 26.1772 7.49037 25.8387C7.49037 25.5003 5.80504 25.2234 3.74519 25.2234H0L0.539779 22.1743C1.58062 16.2948 1.59458 16.2794 5.87098 16.2794H9.82737L10.3715 12.6467C10.6708 10.6487 11.3328 8.67206 11.8426 8.25413C12.9983 7.30671 23.0788 3.96928 23.5028 4.3937C23.6738 4.56491 23.2475 7.14897 22.5555 10.1361C21.8635 13.1232 21.2974 15.7275 21.2974 15.9233C21.2974 16.1192 23.3075 16.2794 25.7644 16.2794C30.6794 16.2794 30.6825 16.284 29.71 22.1743L29.2066 25.2234L24.2368 25.2243L19.2669 25.2252L17.4229 33.965C14.4795 47.915 14.5098 47.5833 16.037 49.1122C17.1092 50.1856 18.2105 50.3826 20.8902 49.9803L24.3564 49.4599L23.5022 53.1969L22.6481 56.9339H14.6819C7.03356 56.9339 6.66134 56.851 5.35499 54.855ZM28.7211 42.5016C30.4268 34.5638 32.403 25.4165 33.1127 22.1743L34.403 16.2794H40.0329C43.1293 16.2794 45.6663 16.5538 45.6708 16.8892C45.6752 17.2246 43.7838 26.3719 41.4677 37.2165L37.2565 56.9339H31.4382H25.62L28.7211 42.5016ZM49.4763 53.7504C45.8138 49.692 44.5224 45.073 45.1489 38.2724C46.4092 24.592 56.354 15.4572 69.9724 15.4708C74.7713 15.4757 80.5863 16.7497 80.5863 17.7962C80.5863 18.1412 80.0388 20.2694 79.3695 22.5256L78.1527 26.6276L74.5078 25.4263C69.8011 23.8751 65.901 24.6173 62.3477 27.7407C56.6041 32.7893 55.2606 43.3357 59.7848 47.8591C61.6211 49.6949 62.6015 50.0074 66.2572 49.9216C68.6268 49.866 71.3361 49.4076 72.2779 48.903C74.5303 47.6962 74.9842 48.6304 74.2477 52.9572L73.64 56.5274L63.0152 56.7535L52.3903 56.9796L49.4763 53.7504ZM76.8253 55.511C77.0505 54.7284 78.0112 50.2463 78.9602 45.5507C81.5856 32.5604 87.8892 3.04769 88.3816 1.44051C88.742 0.264162 89.7932 0.0175964 94.4481 0.0175964C97.5448 0.0175964 100.062 0.292008 100.041 0.627406C100.02 0.962806 98.6168 7.75717 96.9225 15.726L93.8419 30.2147L100.834 23.2471L107.826 16.2794L115.526 16.302L123.226 16.3246L113.247 25.8558C107.759 31.098 103.282 35.6891 103.298 36.0582C103.314 36.4274 104.731 39.1716 106.446 42.1564C108.162 45.1412 110.747 49.6872 112.191 52.2586L114.817 56.9339H108.267H101.716L96.9462 47.4099C93.4212 40.3716 92.0563 38.3025 91.7167 39.4822C91.4639 40.3603 90.6522 44.0058 89.913 47.5834C89.1737 51.161 88.3928 54.7284 88.1777 55.511C87.8526 56.6933 86.8252 56.9339 82.1012 56.9339C77.0722 56.9339 76.4632 56.7696 76.8253 55.511ZM121.178 53.8554C111.889 44.5558 116.88 24.6724 130.213 17.8627C132.112 16.8926 135.785 15.9066 138.376 15.6715C151.77 14.4556 159.139 22.49 157.205 36.2001L156.517 41.0787L143.995 41.3038C137.107 41.4276 131.162 41.2186 130.783 40.8392C130.404 40.4597 130.392 38.7119 130.755 36.9551L131.416 33.7608L138.895 33.527L146.373 33.2932V30.6588C146.373 26.261 144.467 24.4103 139.939 24.4103C135.004 24.4103 132.235 26.4676 129.629 32.0705C126.309 39.2096 127.312 46.9104 131.871 49.2705C134.761 50.7667 141.794 50.7521 146.815 49.2394C148.987 48.585 150.891 48.1764 151.045 48.3314C151.2 48.4865 151.079 50.4854 150.776 52.7736L150.224 56.9339H137.239H124.253L121.178 53.8554ZM163.752 54.8895C161.526 51.4878 161.53 46.6161 163.769 36.3383C164.922 31.048 165.865 26.3829 165.865 25.9714C165.865 25.56 164.22 25.2234 162.21 25.2234C160.2 25.2234 158.555 25.0585 158.555 24.8569C158.555 24.6553 158.951 22.6429 159.435 20.3849L160.314 16.2794H164.298H168.282L168.799 13.0441C169.083 11.2646 169.727 9.27833 170.23 8.63009C171.172 7.415 181.283 3.79854 181.929 4.4454C182.242 4.75915 181.167 10.4252 179.952 14.8565C179.612 16.0994 180.193 16.2794 184.545 16.2794C188.908 16.2794 189.476 16.4564 189.11 17.7023C188.88 18.4849 188.453 20.4808 188.16 22.1377L187.627 25.1501L182.689 25.39L177.751 25.63L175.442 36.1082C173.299 45.8357 173.226 46.7273 174.419 48.5507C175.571 50.3106 176.084 50.4579 179.353 49.9671L183.001 49.4194L182.479 51.7538C181.243 57.2854 181.877 56.9339 173.139 56.9339C165.438 56.9339 165.032 56.8456 163.752 54.8895ZM189.761 36.6086L193.885 16.2832L199.455 16.2813L205.026 16.2795L204.47 18.4934C203.946 20.5835 203.998 20.6344 205.398 19.4045C211.516 14.0271 221.937 14.2889 225.618 19.9126L227.02 22.0553L229.539 19.683C234.279 15.2183 241.73 14.1784 247.146 17.2257C250.913 19.3457 252.768 22.9256 252.768 28.0795C252.768 31.1437 249.303 48.782 247.38 55.511C247.043 56.6902 246.009 56.9339 241.343 56.9339C238.246 56.9339 235.712 56.8265 235.712 56.6954C235.712 56.5643 236.991 50.2527 238.555 42.6696C241.366 29.0331 241.381 28.8601 239.862 26.8496C237.69 23.9721 233.629 24.2716 230.727 27.5235C228.302 30.2408 226.949 34.4492 224.214 47.7867L222.338 56.9339H216.421C210.704 56.9339 210.518 56.8719 210.915 55.1045C216.632 29.6885 216.817 28.2602 214.676 26.1168C212.649 24.0876 211.267 23.9894 208.066 25.6467C204.615 27.4329 202.9 31.4805 199.878 44.9683L197.196 56.9339H191.416H185.636L189.761 36.6086ZM256.413 55.5881C253.025 52.1969 252.514 44.1491 255.409 39.776C258.488 35.123 263.754 33.1187 274.012 32.6956L282.818 32.3323V30.0292C282.818 28.707 282.061 27.0199 281.041 26.0682C278.74 23.9218 271.179 23.8542 265.188 25.9265L260.958 27.3896L261.443 23.6639C262.187 17.9372 262.72 17.3912 268.654 16.2702C278.928 14.3296 287.369 16.1927 291.118 21.2283C293.778 24.8017 293.744 28.9336 290.938 43.4069L288.314 56.9339H283.441C278.683 56.9339 278.577 56.8862 278.956 54.9035L279.344 52.8731L277.316 54.9035C275.403 56.8178 274.786 56.9339 266.522 56.9339C259.449 56.9339 257.498 56.6742 256.413 55.5881ZM274.618 49.4009C277.027 48.1615 279.323 45.0601 280.027 42.095L280.558 39.859L275.8 39.8603C269.946 39.8619 265.746 41.8043 264.713 44.9879C263.25 49.4937 269.246 52.1648 274.618 49.4009ZM292.868 55.511C293.094 54.7284 293.676 52.5547 294.159 50.6805L295.038 47.2728L298.471 48.8332C303.103 50.938 309.117 50.9328 311.226 48.8216C313.581 46.4636 312.355 44.1604 306.454 39.8585C300.253 35.3379 298.791 33.2387 298.791 28.858C298.791 24.2571 301.202 20.3799 305.601 17.9051C308.799 16.1061 310.167 15.8723 317.498 15.8723C322.055 15.8723 326.125 16.2383 326.545 16.6855C327.022 17.1946 326.889 18.8969 326.19 21.2393L325.073 24.9801L319.087 24.5954C313.584 24.2419 312.998 24.3576 311.828 26.0298C310.099 28.5011 310.613 29.3956 315.831 32.9935C322.418 37.5349 324.535 40.6622 324.421 45.6789C324.325 49.9124 322.869 53.0547 319.874 55.4924C318.403 56.6895 316.248 56.8999 305.302 56.9154C293.446 56.9315 292.487 56.8241 292.868 55.511ZM334.3 54.6979C332.262 51.6534 332.485 45.002 334.992 34.0021L336.976 25.2994L333.236 25.0581L329.495 24.8168L330.178 20.5481L330.861 16.2794H334.844C338.529 16.2794 338.865 16.1117 339.32 14.0434C340.632 8.08935 340.774 7.93166 346.56 5.97741C349.627 4.94186 352.317 4.27599 352.538 4.49772C352.76 4.71944 352.392 7.46103 351.721 10.5901L350.501 16.2794H355.238C357.843 16.2794 359.975 16.4443 359.975 16.6459C359.975 16.8475 359.579 18.8599 359.096 21.1179L358.216 25.2234H353.465C349.638 25.2234 348.634 25.5002 348.303 26.6463C347.116 30.7572 344.544 44.2198 344.544 46.321C344.544 49.3778 346.774 50.6942 350.702 49.9564L353.589 49.4142L353.021 52.5643C352.708 54.2968 352.296 55.9887 352.105 56.3241C351.914 56.6595 348.166 56.9339 343.777 56.9339C335.976 56.9339 335.763 56.8839 334.3 54.6979ZM361.274 54.4568C355.553 49.428 354.404 38.9848 358.57 29.876C362.324 21.6668 369.456 16.4442 377.968 15.6715C391.297 14.4615 398.722 22.5561 396.797 36.2001L396.109 41.0787L383.587 41.3038C376.7 41.4276 370.797 41.2448 370.469 40.8973C370.142 40.5498 370.119 38.802 370.419 37.0132L370.963 33.7608L378.464 33.527L385.965 33.2932V30.6588C385.965 26.261 384.059 24.4103 379.531 24.4103C376.797 24.4103 374.977 24.9209 373.463 26.1133C369.125 29.5291 366.436 37.9216 367.633 44.3081C368.695 49.9734 376.856 52.1171 386.407 49.2393C388.579 48.5849 390.502 48.1956 390.68 48.3742C390.859 48.5528 390.75 50.5517 390.439 52.8164L389.873 56.9339H376.983H364.093L361.274 54.4568ZM396.795 55.1421C397.264 53.2648 402.126 29.6726 403.841 20.9547L404.76 16.2794H410.367H415.975L415.476 18.922L414.978 21.5645L417.324 19.4278C420.758 16.3004 422.78 15.4663 426.926 15.4663C431.106 15.4663 431.125 15.5169 429.539 22.3776L428.599 26.443L423.979 26.8554C415.915 27.5752 413.448 31.2604 410.105 47.5834L408.273 56.5274L402.3 56.7683C396.429 57.0051 396.336 56.9778 396.795 55.1421ZM441.217 32.3141C438.83 31.1047 435.508 26.4207 435.508 24.264C435.508 19.4295 440.631 13.8505 445.077 13.8432C450.536 13.8342 455 18.2219 455 23.5972C455 30.6083 447.373 35.4322 441.217 32.3141ZM448.368 30.2027C449.239 29.6497 449.198 29.4179 448.157 29.0183C447.446 28.745 446.443 27.5964 445.929 26.4659C444.669 23.698 443.629 23.8714 443.629 26.8496C443.629 28.4758 443.223 29.2888 442.411 29.2888C441.444 29.2888 441.193 28.1144 441.193 23.5972V17.9056H444.375C446.125 17.9056 448.136 18.1277 448.842 18.3991C450.456 19.0191 450.517 22.2612 448.939 23.5722C447.9 24.435 447.919 24.8173 449.089 26.6046C450.35 28.5314 450.489 28.5652 451.495 27.1878C453.309 24.7044 452.78 21.2502 450.189 18.6561C445.442 13.9039 438.756 16.7934 438.756 23.5972C438.756 29.0376 444.252 32.8145 448.368 30.2027ZM447.69 21.2449C447.69 20.5187 445.781 19.5318 444.375 19.5318C443.965 19.5318 443.629 20.0806 443.629 20.7514C443.629 21.5103 444.397 21.971 445.66 21.971C446.777 21.971 447.69 21.6443 447.69 21.2449ZM36.1792 7.94523C36.4204 6.93903 36.8662 4.74368 37.1698 3.06668L37.7217 0.0175964H43.6466C50.2744 0.0175964 49.8229 -0.681015 47.9822 6.72559L47.2244 9.77467H41.4825C35.9393 9.77467 35.7557 9.71134 36.1792 7.94523Z" fill="white"/>
</svg>
